<svg width="366" height="90" viewBox="0 0 366 90" fill="none" xmlns="http://www.w3.org/2000/svg">
<path d="M131.885 37.9499H143.702V64.3138H135.849V44.9221H131.885V37.9499ZM135.443 29.4503C135.439 28.8437 135.555 28.2423 135.786 27.6814C136.005 27.1439 136.329 26.6553 136.737 26.2436C137.15 25.8328 137.638 25.5046 138.173 25.2766C138.74 25.036 139.35 24.9147 139.965 24.9201C140.56 24.9173 141.149 25.0387 141.694 25.2766C142.224 25.507 142.707 25.835 143.117 26.2436C143.527 26.6569 143.855 27.1449 144.083 27.6814C144.317 28.2414 144.438 28.8427 144.438 29.45C144.438 30.0574 144.317 30.6587 144.083 31.2187C143.626 32.2991 142.77 33.1608 141.694 33.6235C141.149 33.8617 140.56 33.9831 139.966 33.98C139.35 33.9856 138.74 33.8643 138.174 33.6235C137.638 33.3959 137.15 33.0676 136.738 32.6565C136.329 32.2449 136.005 31.7562 135.786 31.2187C135.555 30.6581 135.439 30.0571 135.443 29.4508V29.4503Z" fill="#0F121B"/>
<path d="M169.213 47.0606C168.555 46.2044 167.724 45.4976 166.773 44.9868C165.788 44.5033 164.69 44.2965 163.597 44.3887C162.683 44.3103 161.765 44.4498 160.916 44.7957C160.13 45.1219 159.421 45.607 158.831 46.2206C158.237 46.8475 157.775 47.5876 157.472 48.397C157.138 49.305 156.974 50.267 156.989 51.2345C156.984 52.1416 157.157 53.0409 157.498 53.8813C157.816 54.681 158.286 55.4112 158.883 56.0313C159.475 56.6386 160.184 57.1191 160.967 57.4437C161.804 57.7906 162.693 57.997 163.597 58.0545C164.342 57.9987 165.075 57.8314 165.771 57.558C166.399 57.3095 166.986 56.9664 167.511 56.5404C168.009 56.1357 168.449 55.6647 168.82 55.1405C169.15 54.6815 169.436 54.1914 169.671 53.677L176.66 55.6108C176.321 56.7379 175.82 57.8097 175.173 58.7923C174.429 59.9405 173.502 60.9591 172.429 61.8077C169.781 63.9043 166.489 65.0151 163.114 64.9502C161.202 64.9713 159.307 64.5943 157.549 63.8432C155.905 63.1407 154.418 62.1152 153.177 60.8275C151.943 59.5342 150.972 58.0131 150.318 56.3489C149.623 54.5918 149.273 52.717 149.288 50.8273C149.271 48.9636 149.63 47.1156 150.343 45.3941C151.021 43.7602 152.009 42.2736 153.253 41.0168C154.51 39.7562 156.01 38.7648 157.662 38.1028C159.425 37.3972 161.318 37.0763 163.215 37.1615C164.613 37.091 166.013 37.2544 167.358 37.645C168.707 38.0406 169.992 38.6321 171.17 39.4006H176.228V47.0603L169.213 47.0606Z" fill="#0F121B"/>
<path d="M178.184 51.0303C178.171 49.1806 178.525 47.3467 179.226 45.6352C179.897 43.9809 180.89 42.4766 182.146 41.2097C183.403 39.9428 184.898 38.9386 186.546 38.2553C190.171 36.7964 194.218 36.7964 197.843 38.2553C199.503 38.9451 201.01 39.9572 202.277 41.2331C203.519 42.4961 204.499 43.9923 205.162 45.6357C205.855 47.3492 206.204 49.1823 206.191 51.0308C206.204 52.881 205.863 54.7166 205.187 56.4386C204.54 58.1035 203.563 59.6196 202.313 60.8947C201.064 62.1698 199.569 63.1774 197.919 63.8564C194.228 65.3152 190.122 65.3152 186.431 63.8564C184.786 63.1815 183.295 62.1779 182.05 60.9069C180.804 59.636 179.831 58.1242 179.188 56.464C178.511 54.7333 178.17 52.889 178.184 51.0303V51.0303ZM185.783 51.0303C185.773 51.9748 185.945 52.9124 186.291 53.7911C186.61 54.5981 187.08 55.3363 187.677 55.9656C188.253 56.5713 188.944 57.0557 189.71 57.3905C190.491 57.7326 191.335 57.9062 192.188 57.9001C193.047 57.9077 193.899 57.7387 194.691 57.4037C195.452 57.0796 196.136 56.5982 196.699 55.991C197.279 55.3592 197.732 54.6208 198.033 53.8165C198.364 52.9254 198.527 51.9809 198.516 51.0303C198.529 50.0589 198.366 49.0931 198.033 48.1806C197.738 47.3768 197.284 46.6409 196.698 46.0174C196.133 45.4256 195.449 44.9614 194.691 44.6555C193.896 44.3376 193.044 44.1861 192.188 44.2104C191.34 44.1874 190.497 44.3389 189.71 44.6555C188.946 44.9648 188.253 45.4284 187.676 46.0174C187.074 46.6382 186.603 47.3738 186.291 48.1806C185.941 49.0892 185.769 50.0566 185.783 51.0303Z" fill="#0F121B"/>
<path d="M230.588 49.1472C230.588 47.6715 230.199 46.5136 229.42 45.6737C228.641 44.8337 227.607 44.4137 226.319 44.4137C225.399 44.4226 224.49 44.6222 223.651 45.0001C222.752 45.391 221.88 46.1205 221.033 47.1887V64.3128H212.798V44.9211H208.986V37.9507H220.982V40.2661C222.099 39.3921 223.347 38.7007 224.68 38.2177C226.06 37.7142 227.519 37.46 228.988 37.4669C232.155 37.4669 234.595 38.3533 236.308 40.1261C238.02 41.8989 238.876 44.4903 238.874 47.9004V64.3128H230.588V49.1472Z" fill="#0F121B"/>
<path d="M244.056 51.0303C244.043 49.1806 244.397 47.3467 245.098 45.6352C245.769 43.9809 246.761 42.4766 248.018 41.2097C249.275 39.9428 250.77 38.9386 252.418 38.2553C256.043 36.7964 260.09 36.7964 263.715 38.2553C265.375 38.9451 266.882 39.957 268.149 41.2328C269.391 42.4959 270.371 43.992 271.034 45.6355C271.727 47.3489 272.077 49.182 272.063 51.0306C272.076 52.8808 271.735 54.7163 271.059 56.4383C270.413 58.1033 269.435 59.6193 268.186 60.8944C266.936 62.1696 265.441 63.1772 263.791 63.8561C260.1 65.3149 255.994 65.3149 252.303 63.8561C250.658 63.1813 249.167 62.1777 247.922 60.9068C246.676 59.6358 245.703 58.124 245.06 56.4638C244.383 54.7332 244.042 52.889 244.056 51.0303V51.0303ZM251.655 51.0303C251.644 51.9748 251.817 52.9124 252.163 53.7911C252.481 54.5981 252.952 55.3363 253.548 55.9656C254.125 56.5714 254.816 57.0558 255.582 57.3905C256.363 57.7326 257.207 57.9062 258.06 57.9001C258.919 57.9077 259.771 57.7387 260.563 57.4037C261.324 57.0796 262.008 56.5982 262.57 55.991C263.151 55.3589 263.604 54.6201 263.905 53.8156C264.235 52.9244 264.399 51.9797 264.387 51.0291C264.401 50.0579 264.237 49.0924 263.905 48.1801C263.61 47.3763 263.156 46.6405 262.57 46.0169C262.005 45.4252 261.321 44.9609 260.563 44.655C259.767 44.3371 258.915 44.1856 258.059 44.2099C257.212 44.1869 256.368 44.3384 255.581 44.655C254.817 44.9642 254.125 45.4278 253.548 46.0169C252.946 46.6377 252.475 47.3733 252.163 48.1801C251.813 49.089 251.641 50.0565 251.656 51.0303H251.655Z" fill="#0F121B"/>
<path d="M274.857 37.9504H286.904V40.2404C288.008 39.364 289.243 38.6682 290.564 38.1788C291.904 37.6729 293.325 37.4144 294.757 37.416C296.756 37.416 298.472 37.7678 299.904 38.4715C301.331 39.1717 302.507 40.2961 303.271 41.6909C303.841 41.0539 304.475 40.4784 305.164 39.9736C305.87 39.4544 306.623 39.0028 307.413 38.6247C308.214 38.2413 309.053 37.9427 309.917 37.7339C310.795 37.5213 311.695 37.4147 312.598 37.4163C315.817 37.4163 318.29 38.3069 320.019 40.0882C321.747 41.8694 322.611 44.4735 322.611 47.9003V64.3142H314.326V49.1981C314.326 47.7052 313.94 46.5345 313.17 45.6863C312.399 44.838 311.327 44.4138 309.955 44.4136C309.019 44.4105 308.097 44.6424 307.274 45.0879C306.435 45.5378 305.6 46.314 304.77 47.4165C304.787 47.6035 304.795 47.7943 304.795 47.9895V64.3142H296.586V49.1471C296.595 48.4877 296.483 47.8323 296.255 47.2135C296.053 46.6649 295.742 46.1627 295.341 45.7371C294.948 45.3287 294.477 45.0045 293.955 44.7842C293.395 44.5495 292.796 44.424 292.189 44.4146C291.282 44.4105 290.385 44.6016 289.558 44.975C288.652 45.365 287.784 46.0858 286.954 47.1375V64.3152H278.719V44.9235H274.856L274.857 37.9504Z" fill="#0F121B"/>
<path d="M326.974 37.9512H335.905L338.649 44.9233L342.436 54.7978L346.324 44.9233L348.84 37.9512H356.973L354.1 44.9233L343.909 69.328L340.724 76.3009H332.092V69.328H336.692L338.673 64.3133L330.439 44.9216L326.974 37.9512Z" fill="#0F121B"/>
<path d="M97.1121 56.6519H101.051V32.044H97.1121V24.9951L115.893 25.0459C117.536 25.0259 119.166 25.3418 120.683 25.9744C122.085 26.5619 123.358 27.4177 124.432 28.4938C125.486 29.5587 126.319 30.8213 126.885 32.2092C127.472 33.642 127.77 35.1772 127.761 36.7261C127.761 38.5921 127.435 40.1359 126.783 41.3575C126.136 42.5732 125.175 43.5928 124 44.3096C125.22 45.0726 126.25 46.1039 127.013 47.3252C127.749 48.5214 128.118 49.9763 128.118 51.6898C128.137 53.3368 127.83 54.9713 127.215 56.4992C126.647 57.9074 125.81 59.1911 124.751 60.2781C123.699 61.3446 122.441 62.1843 121.053 62.7458C119.592 63.3383 118.029 63.6367 116.453 63.6238H97.1121V56.6519ZM109.489 32.044V40.6961H115.537C116.01 40.6967 116.474 40.5739 116.884 40.3399C117.312 40.0982 117.688 39.7738 117.99 39.3856C118.308 38.9777 118.561 38.5227 118.74 38.0369C118.926 37.5363 119.021 37.0061 119.019 36.4718C119.017 35.9337 118.922 35.4 118.74 34.894C118.562 34.3844 118.309 33.9041 117.99 33.4689C117.69 33.0581 117.315 32.7083 116.884 32.4383C116.482 32.1814 116.015 32.0446 115.537 32.0438L109.489 32.044ZM109.489 47.6688V56.6519H115.893C116.381 56.6529 116.86 56.5209 117.278 56.2701C117.714 56.0124 118.094 55.6707 118.397 55.2649C118.723 54.8248 118.976 54.335 119.146 53.8144C119.333 53.2611 119.428 52.6808 119.426 52.0968C119.432 51.5041 119.337 50.9147 119.146 50.3536C118.975 49.8466 118.717 49.3731 118.384 48.9541C118.075 48.5662 117.69 48.2457 117.253 48.0125C116.835 47.7871 116.368 47.6691 115.893 47.669L109.489 47.6688Z" fill="#0F121B"/>
<rect x="13.4199" y="11.2383" width="67.588" height="67.6767" rx="15" fill="#0F121B"/>
<path d="M33 56.333H36.5569V34.1114H33V27.7461L49.9597 27.792C51.4436 27.7738 52.9156 28.0591 54.2856 28.6304C55.5511 29.161 56.701 29.9338 57.6709 30.9055C58.6222 31.8671 59.3748 33.0073 59.8855 34.2606C60.4161 35.5544 60.6852 36.9408 60.6772 38.3395C60.6772 40.0245 60.3827 41.4186 59.7938 42.5217C59.2096 43.6196 58.3418 44.5403 57.2809 45.1876C58.3824 45.8766 59.3127 46.8079 60.0009 47.9108C60.6664 48.991 60.9991 50.3047 60.9993 51.8521C61.0161 53.3394 60.739 54.8154 60.184 56.1951C59.6711 57.4668 58.9152 58.6259 57.9586 59.6075C57.009 60.5706 55.8726 61.3289 54.6194 61.8359C53.3003 62.371 51.8888 62.6404 50.4656 62.6288H33V56.333ZM44.1767 34.1114V41.9245H49.6384C50.0649 41.925 50.4841 41.8141 50.8547 41.6028C51.2412 41.3846 51.5806 41.0916 51.8533 40.741C52.1407 40.3728 52.3691 39.9619 52.5301 39.5232C52.6986 39.0711 52.7841 38.5923 52.7826 38.1098C52.7808 37.6239 52.6954 37.1419 52.5301 36.685C52.3695 36.2248 52.1414 35.7911 51.8533 35.3981C51.5825 35.0272 51.2436 34.7113 50.8547 34.4675C50.4913 34.2355 50.0694 34.1119 49.6384 34.1112L44.1767 34.1114ZM44.1767 48.221V56.333H49.9599C50.4004 56.3339 50.8328 56.2147 51.2107 55.9882C51.604 55.7554 51.9472 55.4469 52.2206 55.0805C52.5149 54.683 52.7434 54.2408 52.8974 53.7706C53.0661 53.271 53.1515 52.747 53.15 52.2196C53.1552 51.6844 53.0698 51.1521 52.8974 50.6454C52.7425 50.1876 52.5096 49.7601 52.2091 49.3817C51.9303 49.0314 51.5827 48.742 51.1878 48.5314C50.8105 48.3278 50.3885 48.2213 49.9599 48.2212L44.1767 48.221Z" fill="white"/>
</svg>
