<svg width="273" height="60" fill="none" xmlns="http://www.w3.org/2000/svg"><g clip-path="url(#clip0)"><path d="M106.532 19.084c1.671 1.01 3.085 2.4 3.984 4.297 1.028 1.895 1.542 4.17 1.542 6.698 0 2.528-.514 4.676-1.67 6.572-1.028 1.896-2.571 3.286-4.498 4.171-1.928 1.011-4.241 1.517-6.683 1.517-1.413 0-2.698-.253-3.983-.759-1.285-.379-2.442-1.137-3.341-2.022v13.144h-7.454v-34.63h6.426l.642 2.78c2.827-2.274 5.911-3.412 9.124-3.412 2.185 0 4.241.506 5.911 1.643zm-4.112 15.671c1.285-1.137 1.928-2.654 1.928-4.55 0-1.895-.643-3.412-1.799-4.676-1.157-1.264-2.699-1.77-4.37-1.77-1.413 0-2.698.254-3.726.886-1.028.505-1.8 1.39-2.442 2.527v5.688c.386 1.137 1.157 2.022 2.056 2.654a6.658 6.658 0 003.598 1.01c1.928 0 3.47-.631 4.755-1.769zm14.007-11.251c1.157-1.77 2.699-3.286 4.755-4.297 2.056-1.011 4.369-1.643 6.94-1.643 2.57 0 4.883.506 6.939 1.643 1.928 1.011 3.47 2.528 4.626 4.424 1.157 1.895 1.671 3.918 1.671 6.319s-.514 4.423-1.671 6.32c-1.156 1.895-2.57 3.412-4.626 4.423-1.928 1.01-4.369 1.643-6.939 1.643-2.571 0-4.884-.506-6.94-1.517-2.056-1.01-3.598-2.401-4.755-4.297a13.5 13.5 0 01-1.67-6.572c0-2.401.642-4.55 1.67-6.446zm7.582 10.996c1.028 1.264 2.442 1.77 4.113 1.77 1.67 0 3.084-.633 4.112-1.77 1.028-1.138 1.542-2.78 1.542-4.55 0-1.896-.514-3.413-1.542-4.55-1.157-1.264-2.442-1.896-4.241-1.896-1.671 0-2.956.632-4.112 1.77-1.028 1.263-1.542 2.78-1.542 4.676 0 1.77.514 3.286 1.67 4.55zM153.437.124v41.581h-7.453V.124h7.453zm30.585 18.579l-15.164 34.124h-7.196l5.654-12.26-10.795-21.864h8.482l6.168 13.65 6.169-13.65h6.682zm28.529-.002v23.003a9.96 9.96 0 01-1.928 5.94c-1.285 1.77-2.955 3.16-5.14 4.17-2.185 1.012-4.498 1.517-7.068 1.517-1.928 0-3.598-.252-5.012-.631-1.413-.506-2.57-1.012-3.469-1.517-1.028-.632-2.057-1.39-3.213-2.401l4.369-5.056a12.559 12.559 0 003.213 2.275c1.028.506 2.441.885 3.984.885 1.927 0 3.469-.506 4.754-1.39 1.285-.885 1.928-2.276 1.928-3.919v-3.286a8.376 8.376 0 01-3.341 2.907c-1.542.759-3.341 1.138-5.398 1.138-2.056 0-4.112-.506-5.911-1.643-1.799-1.011-3.213-2.528-4.369-4.424-1.028-1.896-1.671-3.918-1.671-6.193 0-2.275.514-4.423 1.671-6.32 1.156-1.895 2.57-3.412 4.498-4.549 1.799-1.137 3.726-1.643 5.782-1.643 1.928 0 3.599.253 5.141.758 1.542.506 2.698 1.264 3.469 2.149l.771-1.77h6.94zm-7.582 14.156v-5.688c-.514-1.137-1.285-2.022-2.442-2.654a8.076 8.076 0 00-3.983-1.01c-1.8 0-3.342.631-4.627 1.769-1.285 1.137-1.927 2.654-1.927 4.55 0 1.769.642 3.412 1.927 4.676 1.285 1.264 2.827 1.896 4.627 1.896 2.955-.127 5.14-1.264 6.425-3.54zm13.75-9.35c1.157-1.896 2.699-3.286 4.755-4.424 2.056-1.01 4.369-1.643 6.939-1.643 2.57 0 4.883.506 6.939 1.643 1.928 1.012 3.47 2.528 4.627 4.424 1.028 1.896 1.67 3.918 1.67 6.32 0 2.4-.514 4.423-1.67 6.319-1.028 1.895-2.57 3.412-4.627 4.423-1.927 1.011-4.369 1.643-6.939 1.643-2.57 0-4.883-.505-6.939-1.516-2.056-1.011-3.598-2.402-4.755-4.297-1.157-1.896-1.671-4.045-1.671-6.699 0-2.149.514-4.297 1.671-6.193zm7.453 10.996c1.028 1.264 2.442 1.77 4.113 1.77 1.67 0 3.084-.633 4.112-1.77 1.028-1.138 1.542-2.78 1.542-4.55 0-1.896-.514-3.413-1.542-4.55-1.028-1.138-2.442-1.77-4.112-1.77-1.671 0-2.956.632-4.113 1.77-1.156 1.137-1.67 2.78-1.67 4.55.128 1.77.642 3.286 1.67 4.55zm43.822-15.043c1.542 1.264 2.184 2.907 2.313 4.929v17.315h-7.582V27.169c-.129-2.275-1.285-3.412-3.47-3.412-1.67 0-3.084.758-4.112 2.401-1.028 1.643-1.542 3.665-1.542 6.067v9.479h-7.454V18.7h6.811l.514 3.666c.9-1.517 2.056-2.655 3.599-3.54 1.542-.884 3.341-1.263 5.397-1.263 2.185 0 4.112.632 5.526 1.896z" fill="#061024"/><path d="M52.56 18.324c-1.286-.758-2.956-.758-4.37 0l-10.023 5.814-6.811 3.791-10.024 5.814c-1.285.758-2.956.758-4.37 0l-7.966-4.55c-1.286-.758-2.185-2.148-2.185-3.665v-8.973c0-1.517.77-2.907 2.184-3.666l7.84-4.423c1.284-.759 2.955-.759 4.369 0l7.839 4.423c1.285.759 2.184 2.149 2.184 3.666v5.813l6.811-3.918v-5.813c0-1.517-.77-2.907-2.184-3.666L21.331.63c-1.285-.759-2.956-.759-4.37 0L2.186 8.97C.77 9.73 0 11.12 0 12.636v16.81c0 1.517.771 2.907 2.185 3.665l14.778 8.342c1.285.758 2.956.758 4.37 0l10.023-5.688 6.81-3.918L48.19 26.16c1.285-.758 2.956-.758 4.37 0l7.838 4.424c1.285.758 2.185 2.148 2.185 3.665v8.973c0 1.517-.771 2.907-2.185 3.665l-7.839 4.55c-1.285.759-2.955.759-4.369 0l-7.839-4.423c-1.285-.759-2.184-2.149-2.184-3.665v-5.814l-6.811 3.918v5.814c0 1.516.77 2.906 2.184 3.665l14.779 8.341c1.285.759 2.955.759 4.369 0l14.778-8.341c1.285-.759 2.185-2.149 2.185-3.665v-16.81c0-1.517-.771-2.907-2.185-3.665L52.56 18.324z" fill="#8247E5"/></g><defs><clipPath id="clip0"><path fill="#fff" d="M0 0h272.307v59.907H0z"/></clipPath></defs></svg>