<?xml version="1.0" encoding="utf-8"?>
<!-- Generator: Adobe Illustrator 24.2.1, SVG Export Plug-In . SVG Version: 6.00 Build 0)  -->
<svg version="1.1" id="Layer_1" xmlns="http://www.w3.org/2000/svg" xmlns:xlink="http://www.w3.org/1999/xlink" x="0px" y="0px"
	 viewBox="0 0 2023 759" style="enable-background:new 0 0 2023 759;" xml:space="preserve">
<style type="text/css">
	.st0{fill:#FFFFFF;stroke:#000000;stroke-miterlimit:10;}
	.st1{fill-rule:evenodd;clip-rule:evenodd;fill:#4360DF;}
	.st2{fill-rule:evenodd;clip-rule:evenodd;}
</style>
<circle class="st0" cx="389.2" cy="379.4" r="278.8"/>
<path class="st1" d="M444.7,375.9c-45.6,2.6-74.2-8-119.8-5.3c-11.3,0.6-22.5,2.3-33.6,4.9c6.7-84.1,66.4-157.7,147.6-162.4
	c49.8-2.9,99.6,27.8,102.3,77.6C543.9,339.6,506.5,372.4,444.7,375.9L444.7,375.9z M322.2,548c-47.7,2.7-95.4-26-98-72.6
	c-2.5-45.8,33.3-76.4,92.5-79.8c43.7-2.5,71.1,7.5,114.7,5c10.8-0.6,21.6-2.1,32.2-4.6C457.2,474.7,400,543.6,322.2,548z M380.5,0
	C170.4,0,0,169.9,0,379.4s170.4,379.4,380.5,379.4S761,589,761,379.4S590.6,0,380.5,0"/>
<path class="st2" d="M932.8,435.3h58.1c0,8.5,2.8,14.6,8.3,18.4c5.6,3.7,12.7,5.6,21.4,5.6c7.2,0,13.1-1.2,17.7-3.7
	c4.6-2.4,6.9-6.4,6.9-12c0-3.3-1-6-2.9-8.1c-2-2.1-5-4-9-5.6c-5.1-2-10.2-3.8-15.5-5.4l-22.8-7.2c-7.6-2.4-15-5.1-22.4-8
	c-7-2.8-13.1-6.2-18.4-10.3c-5.2-4-9.5-9.2-12.4-15.1c-3-5.9-4.4-13.3-4.4-22c0-10,2-18.7,5.9-26.1c3.9-7.3,9.6-13.6,16.5-18.1
	c7.1-4.8,15.5-8.3,25.3-10.7c9.8-2.4,20.7-3.6,32.5-3.6c14.5,0,27,1.7,37.5,5c10.5,3.4,19,7.9,25.7,13.7
	c6.7,5.8,11.6,12.6,14.8,20.5c3.2,7.8,4.8,16.3,4.8,25.3H1042c0-7.9-2-14-6-18.3c-4-4.4-10-6.6-18.1-6.6c-6.2,0-11.5,1.4-15.9,4.2
	c-4.4,2.8-6.6,6.9-6.6,12.4c0,3.7,1,6.7,3.1,8.9c2.1,2.2,5.1,4.3,9.2,6c4,1.8,9,3.7,15,5.6l20.4,6.6c8.3,2.2,16.1,4.6,23.3,7.3
	c7.2,2.7,13.5,5.9,19,9.7c5.4,3.7,9.9,8.6,13,14.4c3.2,5.8,4.8,13.1,4.8,21.9c0,11.7-2.3,21.6-6.8,29.8c-4.4,8-10.7,14.9-18.3,20.1
	c-7.6,5.2-16.5,8.9-26.6,11.1s-20.7,3.4-31.8,3.4c-27.6,0-49-5.9-64.2-17.7C940.4,474.8,932.8,457.7,932.8,435.3L932.8,435.3z
	 M1109.4,355.9v-44.9h28.8v-56.4h58.6v56.4h42v44.9h-42v67.6c0,7,0.6,12.6,1.9,16.8c1.2,4.1,3,7.4,5.3,9.8c2.3,2.3,5.2,4,8.4,4.6
	c3.7,0.7,7.4,1.1,11.2,1c2.5,0,5.7-0.1,9.5-0.3c3.9-0.2,7.2-0.5,10.1-1.1v46.8c-5.4,0.9-10.9,1.6-16.4,2.1c-6.6,0.6-14.3,1-23.1,1
	c-7.3,0-14.6-0.5-21.8-1.5c-7.6-1-14.9-3.8-21.2-8.1c-6.5-4.4-11.9-11.1-16.2-20.1c-4.3-9.1-6.4-21.5-6.4-37.3v-81.3H1109.4z
	 M1316.3,409.8c0,6.6,1.1,12.9,3.4,18.9c2.3,6,5.4,11.2,9.3,15.5c4,4.4,8.9,7.9,14.2,10.5c5.6,2.7,11.8,4,18.6,4
	c6.8,0,13.1-1.3,18.7-4c5.6-2.7,10.4-6.1,14.4-10.5c3.9-4.3,7-9.5,9.3-15.4c2.3-6.1,3.4-12.5,3.4-19c0-6.4-1.1-12.7-3.4-18.6
	c-2.2-5.7-5.3-10.9-9.3-15.5c-3.9-4.5-8.8-8.2-14.3-10.7c-5.6-2.6-11.8-3.9-18.8-3.9c-6.9,0-13.1,1.3-18.6,3.9
	c-5.5,2.5-10.3,6.1-14.2,10.7c-4,4.6-7.1,9.8-9.3,15.5C1317.4,397.1,1316.3,403.4,1316.3,409.8z M1255.5,409.8
	c0-14.3,2.3-27.6,6.9-39.9c4.6-12.3,11-22.8,19.3-31.7c8.2-8.8,18.1-16,29-21c11.1-5.2,23-7.8,35.9-7.8c14.3,0,26.8,3,37.3,9.1
	c10.5,6.1,18.5,13.8,23.8,23.1v-27.3h60.9v191.2h-60.9v-26.9c-4.8,8.8-12.5,16.3-23.1,22.5s-23.3,9.3-38,9.3
	c-12.8,0-24.7-2.6-35.8-7.8c-11-5.1-20.9-12.2-29.1-21.1c-8.3-8.9-14.7-19.5-19.3-31.8C1257.8,437.4,1255.5,424.1,1255.5,409.8
	L1255.5,409.8z M1484.7,355.9v-44.9h28.8v-56.4h58.6v56.4h42v44.9h-42v67.6c0,7,0.6,12.6,1.9,16.8s3,7.4,5.3,9.8
	c2.3,2.3,5.2,4,8.4,4.6c3.7,0.7,7.4,1.1,11.2,1c2.5,0,5.7-0.1,9.6-0.3c3.9-0.2,7.2-0.5,10.1-1.1v46.8c-5.4,0.9-10.9,1.6-16.4,2.1
	c-6.6,0.6-14.3,1-23.1,1c-7.3,0-14.6-0.5-21.8-1.5c-7.6-1-14.9-3.8-21.2-8.1c-6.5-4.4-11.9-11.1-16.2-20.1
	c-4.3-9.1-6.4-21.5-6.4-37.3v-81.3L1484.7,355.9L1484.7,355.9z M1639,427.2V314.4h59.7v97.4c0,13.6,2.4,24.7,7.2,33.2
	c4.8,8.5,13.4,12.8,25.8,12.8s21.6-4.3,27.5-13c5.9-8.7,8.8-20.4,8.8-35.1v-95.3h59.7v190h-59.7v-27.1c-5.2,10-13.1,17.8-23.8,23.5
	c-10.6,5.6-23.4,8.5-38.2,8.5c-13,0-23.7-2.1-32.1-6.2c-8.4-4.1-15.2-9.3-20.4-15.6c-6-7.3-9.9-15.8-11.8-25.4
	C1639.9,452.4,1639,440.8,1639,427.2L1639,427.2z M1852.1,435.3h58.1c0,8.5,2.8,14.6,8.3,18.4c5.5,3.7,12.7,5.6,21.4,5.6
	c7.2,0,13.1-1.2,17.7-3.7c4.6-2.4,6.9-6.4,6.9-12c0-3.3-1-6-2.9-8.1c-2-2.1-5-4-9-5.6c-5.1-2-10.2-3.8-15.5-5.4l-22.8-7.2
	c-7.5-2.4-15-5.1-22.4-8c-7-2.8-13.2-6.2-18.5-10.3c-5.2-4-9.4-9.2-12.4-15.1c-3-5.9-4.4-13.3-4.4-22c0-10,2-18.7,5.9-26.1
	c3.9-7.3,9.6-13.6,16.5-18.1c7.1-4.8,15.5-8.3,25.4-10.7c9.8-2.4,20.7-3.6,32.5-3.6c14.5,0,27,1.7,37.5,5c10.5,3.4,19,7.9,25.7,13.7
	c6.7,5.8,11.6,12.6,14.9,20.5c3.2,7.8,4.8,16.3,4.8,25.3h-58.5c0-7.9-2-14-6-18.3c-4-4.4-10-6.6-18.1-6.6c-6.2,0-11.5,1.4-15.9,4.2
	c-4.4,2.8-6.6,6.9-6.6,12.4c0,3.7,1,6.7,3.1,8.9c2.1,2.2,5.1,4.3,9.2,6c4,1.8,9,3.7,15,5.6l20.4,6.6c7.9,2,15.6,4.5,23.3,7.3
	c7.2,2.7,13.5,5.9,19,9.7c5.4,3.7,9.9,8.6,13,14.4c3.2,5.8,4.8,13.1,4.8,21.9c0,11.7-2.3,21.6-6.8,29.8c-4.4,8-10.7,14.9-18.3,20.1
	c-7.6,5.2-16.5,8.9-26.6,11.1c-10.1,2.2-20.7,3.4-31.8,3.4c-27.6,0-49-5.9-64.2-17.7C1859.7,474.8,1852.1,457.7,1852.1,435.3"/>
</svg>
